<?xml version="1.0" encoding="utf-8"?>
<!-- Generator: Adobe Illustrator 24.0.0, SVG Export Plug-In . SVG Version: 6.00 Build 0)  -->
<svg version="1.1" id="Capa_1" xmlns="http://www.w3.org/2000/svg" xmlns:xlink="http://www.w3.org/1999/xlink" x="0px" y="0px"
	 viewBox="0 0 200 200" style="enable-background:new 0 0 200 200;" xml:space="preserve">
<style type="text/css">
	.st0{fill:#FB4936;}
	.st1{fill:#0D0D0C;}
	.st2{display:none;fill:#0D0D0C;}
	.st3{stroke:#000000;stroke-width:0.25;stroke-miterlimit:10;}
</style>
<path class="st0" d="M200,100c0,55.2-44.8,100-100,100C44.8,200,0,155.2,0,100C0,44.8,44.8,0,100,0C155.2,0,200,44.8,200,100z"/>
<circle class="st1" cx="170.7" cy="82.4" r="3.5"/>
<circle class="st1" cx="29.1" cy="116.2" r="3.5"/>
<circle class="st2" cx="100" cy="100" r="73.5"/>
<g>
	<path class="st3" d="M172.3,104.3c2.4,0.4,4.2,1.4,5.5,3s1.8,3.5,1.4,5.8c-0.4,2.3-1.4,4-3.2,5.1c-1.7,1.1-3.8,1.4-6.1,1.1
		c-2.4-0.4-4.2-1.4-5.5-3c-1.3-1.6-1.8-3.5-1.4-5.8c0.4-2.3,1.4-4,3.2-5.1C167.9,104.3,169.9,103.9,172.3,104.3z M171.9,106.5
		c-1.9-0.3-3.5-0.1-4.8,0.6s-2.1,1.9-2.3,3.7c-0.3,1.7,0.1,3.1,1,4.2c1,1.1,2.4,1.8,4.3,2.1c1.9,0.3,3.5,0.1,4.7-0.6
		c1.3-0.7,2.1-1.9,2.3-3.7c0.3-1.7-0.1-3.1-1-4.2C175.2,107.5,173.8,106.8,171.9,106.5z"/>
	<path class="st3" d="M174.1,130c-0.4,1-0.8,1.8-1.3,2.5c-0.4,0.7-1,1.2-1.5,1.6c-0.6,0.4-1.3,0.6-2.1,0.7c-0.8,0-1.6-0.2-2.6-0.6
		c-1-0.4-1.7-0.9-2.2-1.4c-0.5-0.6-0.9-1.2-1-1.9c-0.1-0.7-0.1-1.5,0.1-2.2c0.2-0.8,0.4-1.6,0.9-2.6l1-2.3l-5-2.1l0.8-2l14.7,6.1
		L174.1,130z M166.1,126.7c-0.3,0.7-0.5,1.2-0.6,1.7c-0.1,0.5-0.1,1-0.1,1.4c0,0.5,0.2,0.9,0.6,1.3s0.9,0.7,1.5,1
		c0.7,0.3,1.3,0.4,1.8,0.4c0.5,0,0.9-0.2,1.3-0.5c0.4-0.3,0.7-0.7,1-1.1c0.3-0.4,0.5-1,0.8-1.6l1-2.4l-6.3-2.6L166.1,126.7z"/>
	<path class="st3" d="M156,131.5l13.3,8.9l-5.6,8.5l-1.6-1.1l4.4-6.6l-4.3-2.8l-3.8,5.7l-1.6-1.1l3.8-5.7l-4.3-2.9l-4.4,6.6
		l-1.6-1.1L156,131.5z"/>
	<path class="st3" d="M149.4,141.4l11,11.5l-3.2,3.1l-15.9-6l-0.4,0.4l1.3,0.8l9.6,10l-1.6,1.5l-11-11.5l3.2-3.1l15.9,6l0.4-0.4
		l-1.3-0.8l-9.6-10L149.4,141.4z"/>
	<path class="st3" d="M126.4,175.8l-0.8-1.7l5-2.2L125,159l2-0.9l5.7,12.8l5-2.2l0.8,1.7L126.4,175.8z"/>
	<path class="st3" d="M122.1,169c0.5,2.3,0.2,4.4-0.8,6.2c-1,1.8-2.7,2.9-5,3.4c-2.3,0.5-4.2,0.1-5.9-1.1c-1.6-1.2-2.7-3-3.2-5.3
		c-0.5-2.3-0.2-4.4,0.8-6.2c1-1.8,2.7-2.9,4.9-3.4c2.3-0.5,4.3-0.1,5.9,1.1C120.5,164.8,121.6,166.6,122.1,169z M119.9,169.4
		c-0.4-1.9-1.2-3.3-2.3-4.2s-2.6-1.2-4.3-0.9c-1.7,0.4-2.9,1.2-3.6,2.5c-0.7,1.3-0.8,2.9-0.4,4.8c0.4,1.9,1.1,3.3,2.3,4.2
		s2.5,1.2,4.3,0.9c1.7-0.4,2.9-1.2,3.6-2.5C120.2,172.9,120.3,171.3,119.9,169.4z"/>
	<path class="st3" d="M94.3,180.5l-2.1-0.4l0.1-15.7l-0.6-0.1l-6.1,14.4l-4.5-0.9l0.2-15.6l-0.6-0.1l-6.2,14.4l-2.1-0.4l6.5-14.9
		l4.4,0.9l-0.2,15.6l0.6,0.1l6.1-14.4l4.4,0.9L94.3,180.5z"/>
	<path class="st3" d="M72.1,166.8c-1.1,2.1-2.7,3.5-4.6,4.2c-1.9,0.7-3.9,0.5-6-0.6c-2-1.1-3.3-2.7-3.7-4.7c-0.5-2-0.1-4,1-6.1
		c1.2-2.1,2.7-3.5,4.6-4.2c1.9-0.7,3.9-0.5,6,0.6c2.1,1.1,3.3,2.7,3.8,4.7C73.6,162.7,73.3,164.7,72.1,166.8z M70.2,165.8
		c0.9-1.7,1.3-3.2,1-4.7c-0.3-1.4-1.2-2.6-2.7-3.4c-1.5-0.8-3-1-4.3-0.4c-1.4,0.6-2.5,1.7-3.4,3.4c-0.9,1.7-1.2,3.2-1,4.7
		s1.1,2.6,2.7,3.4c1.5,0.8,3,1,4.3,0.4C68.2,168.6,69.3,167.5,70.2,165.8z"/>
	<path class="st3" d="M61.4,151.4l-10.7,11.8l-4-3.7c-1.5-1.4-2.5-2.7-2.9-3.9c-0.4-1.2,0-2.4,1.1-3.7c1.4-1.6,3.1-1.8,4.9-0.6
		l0.4-0.4l-1.5-1.3c-0.7-0.6-0.7-1.3-0.1-1.9l3.9-4.3l1.6,1.5l-4.2,4.6l5.7,5.2l4.2-4.6L61.4,151.4z M54.3,156l-2.4-2.2
		c-0.4-0.4-0.8-0.7-1.1-0.9s-0.6-0.4-1-0.6c-0.4-0.2-0.7-0.3-1-0.3c-0.3,0-0.6,0.1-1,0.3c-0.3,0.2-0.7,0.5-1.1,0.9s-0.6,0.8-0.8,1.1
		c-0.1,0.4-0.2,0.7-0.2,1c0,0.3,0.1,0.6,0.3,1c0.2,0.3,0.4,0.6,0.7,0.9s0.6,0.6,1,1l2.4,2.2L54.3,156z"/>
	<path class="st3" d="M30.3,139.9l12.1,3.4l1-12.5l1.8,2.6l-0.8,10.2l5.4-3.7l1.3,1.8L38,150.9l-1.3-1.8l5.4-3.7l-9.9-2.7
		L30.3,139.9z"/>
</g>
<g>
	<path class="st3" d="M27.7,97c-2.4-0.3-4.2-1.3-5.5-2.9c-1.3-1.6-1.8-3.5-1.5-5.8c0.3-2.3,1.4-4,3.1-5.1s3.8-1.5,6.1-1.2
		c2.4,0.3,4.2,1.3,5.6,2.9c1.3,1.6,1.8,3.5,1.5,5.8c-0.3,2.3-1.4,4-3.1,5.2S30,97.4,27.7,97z M28,94.8c1.9,0.3,3.5,0,4.7-0.7
		c1.3-0.7,2-2,2.3-3.7s-0.1-3.1-1.1-4.2c-1-1.1-2.5-1.7-4.3-2c-1.9-0.3-3.5,0-4.7,0.7c-1.3,0.7-2,2-2.3,3.7
		c-0.3,1.7,0.1,3.1,1.1,4.2S26.1,94.6,28,94.8z"/>
	<path class="st3" d="M25.3,71.4c0.4-1,0.8-1.8,1.2-2.5s0.9-1.2,1.5-1.6c0.6-0.4,1.3-0.7,2-0.7c0.8,0,1.6,0.2,2.6,0.5
		s1.7,0.8,2.3,1.4c0.5,0.5,0.9,1.2,1,1.9c0.1,0.7,0.1,1.5,0,2.2c-0.1,0.8-0.4,1.7-0.8,2.7l-0.9,2.3l5,2l-0.8,2l-14.8-5.9L25.3,71.4z
		 M33.4,74.5c0.3-0.7,0.4-1.3,0.5-1.7c0.1-0.5,0.1-1,0.1-1.4c-0.1-0.5-0.3-0.9-0.6-1.3c-0.4-0.4-0.9-0.7-1.5-0.9
		c-0.7-0.3-1.3-0.4-1.8-0.4s-0.9,0.2-1.3,0.5s-0.7,0.7-0.9,1.1c-0.3,0.4-0.5,1-0.8,1.6l-0.9,2.4l6.3,2.5L33.4,74.5z"/>
	<path class="st3" d="M43.4,69.6L30,61l5.5-8.6l1.6,1l-4.3,6.7l4.3,2.8l3.7-5.8l1.6,1L38.7,64l4.3,2.8l4.3-6.7l1.6,1L43.4,69.6z"/>
	<path class="st3" d="M49.9,59.6L38.6,48.2l3.1-3.1l16,5.7l0.4-0.4l-1.3-0.8l-9.8-9.8l1.6-1.6l11.2,11.3l-3.1,3.1l-16-5.7l-0.4,0.4
		l1.3,0.8l9.8,9.8L49.9,59.6z"/>
	<path class="st3" d="M72.2,24.7l0.8,1.7l-5,2.3L74,41.5l-2,0.9L66,29.7l-5,2.3l-0.8-1.7L72.2,24.7z"/>
	<path class="st3" d="M76.6,31.5c-0.5-2.3-0.3-4.4,0.7-6.2c1-1.8,2.6-3,4.9-3.5c2.3-0.5,4.2-0.2,5.9,1c1.7,1.2,2.8,3,3.3,5.3
		c0.5,2.3,0.3,4.4-0.7,6.2c-1,1.8-2.6,3-4.9,3.5c-2.3,0.5-4.3,0.2-5.9-1C78.3,35.6,77.2,33.8,76.6,31.5z M78.8,31
		c0.4,1.9,1.2,3.3,2.4,4.2c1.2,0.9,2.6,1.2,4.3,0.8c1.7-0.4,2.9-1.2,3.5-2.6c0.6-1.3,0.7-2.9,0.3-4.8c-0.4-1.9-1.2-3.2-2.3-4.2
		c-1.1-0.9-2.6-1.2-4.3-0.8c-1.7,0.4-2.9,1.2-3.5,2.6S78.4,29.1,78.8,31z"/>
	<path class="st3" d="M104.1,19.4l2.1,0.4l0.2,15.7l0.6,0.1l5.8-14.5l4.5,0.9l0.1,15.6l0.6,0.1l5.9-14.5l2.1,0.4l-6.2,15.1l-4.4-0.8
		l-0.1-15.6l-0.6-0.1l-5.9,14.5l-4.4-0.8L104.1,19.4z"/>
	<path class="st3" d="M126.6,32.7c1.1-2.1,2.6-3.5,4.5-4.3c1.9-0.7,3.9-0.6,6,0.5c2.1,1.1,3.3,2.6,3.8,4.6c0.5,2,0.2,4-0.9,6.2
		c-1.1,2.1-2.6,3.6-4.5,4.3c-1.9,0.7-3.9,0.6-6-0.5c-2.1-1.1-3.4-2.6-3.8-4.6C125.2,36.8,125.5,34.8,126.6,32.7z M128.6,33.7
		c-0.9,1.7-1.2,3.3-0.9,4.7c0.3,1.4,1.2,2.6,2.8,3.4c1.6,0.8,3,0.9,4.3,0.3s2.5-1.7,3.3-3.4c0.9-1.7,1.2-3.2,0.9-4.7
		s-1.2-2.6-2.7-3.4c-1.6-0.8-3-0.9-4.3-0.3S129.5,32,128.6,33.7z"/>
	<path class="st3" d="M137.6,47.9l10.5-12l4.1,3.6c1.6,1.4,2.5,2.7,2.9,3.9c0.4,1.2,0,2.4-1.1,3.7c-1.4,1.6-3,1.8-4.9,0.7l-0.4,0.4
		l1.5,1.3c0.7,0.6,0.8,1.3,0.2,1.9l-3.8,4.4l-1.7-1.4l4.1-4.7l-5.8-5.1l-4.1,4.7L137.6,47.9z M144.7,43.2l2.5,2.1
		c0.5,0.4,0.8,0.7,1.1,0.9c0.3,0.2,0.6,0.4,1,0.6c0.4,0.2,0.7,0.3,1,0.2s0.6-0.1,1-0.3c0.3-0.2,0.7-0.5,1.1-0.9
		c0.4-0.4,0.6-0.8,0.7-1.2c0.1-0.4,0.2-0.7,0.2-1c0-0.3-0.1-0.6-0.4-0.9s-0.5-0.6-0.7-0.9s-0.6-0.6-1.1-1l-2.5-2.1L144.7,43.2z"/>
	<path class="st3" d="M168.9,58.8l-12.2-3.2L156,68.2l-1.9-2.6l0.6-10.3l-5.3,3.8l-1.3-1.8l12.9-9.4l1.3,1.8l-5.3,3.8l10,2.6
		L168.9,58.8z"/>
</g>
</svg>
