<?xml version="1.0" encoding="utf-8"?>
<!-- Generator: Adobe Illustrator 24.3.0, SVG Export Plug-In . SVG Version: 6.00 Build 0)  -->
<svg version="1.1" id="Capa_1" xmlns="http://www.w3.org/2000/svg" xmlns:xlink="http://www.w3.org/1999/xlink" x="0px" y="0px"
	 viewBox="0 0 200 200" style="enable-background:new 0 0 200 200;" xml:space="preserve">
<style type="text/css">
	.st0{fill:#FB4936;}
	.st1{fill:#0D0D0C;}
</style>
<path class="st0" d="M200,100.5c0,55.2-44.8,100-100,100S0,155.7,0,100.5s44.8-100,100-100S200,45.3,200,100.5z"/>
<path class="st1" d="M170.7,78.9c1.9,0,3.5,1.6,3.5,3.5s-1.6,3.5-3.5,3.5s-3.5-1.6-3.5-3.5S168.8,78.9,170.7,78.9z M29.1,112.7
	c1.9,0,3.5,1.6,3.5,3.5s-1.6,3.5-3.5,3.5s-3.5-1.6-3.5-3.5S27.2,112.7,29.1,112.7z M170.7,79.4c1.9,0,3.5,1.6,3.5,3.5
	s-1.6,3.5-3.5,3.5s-3.5-1.6-3.5-3.5S168.8,79.4,170.7,79.4z M29.1,113.2c1.9,0,3.5,1.6,3.5,3.5s-1.6,3.5-3.5,3.5s-3.5-1.6-3.5-3.5
	S27.2,113.2,29.1,113.2z M172.3,104.8c2.4,0.4,4.2,1.4,5.5,3s1.8,3.5,1.4,5.8c-0.4,2.3-1.4,4-3.2,5.1c-1.7,1.1-3.8,1.4-6.1,1.1
	c-2.4-0.4-4.2-1.4-5.5-3s-1.8-3.5-1.4-5.8c0.4-2.3,1.4-4,3.2-5.1C167.9,104.8,169.9,104.4,172.3,104.8z M171.9,107
	c-1.9-0.3-3.5-0.1-4.8,0.6s-2.1,1.9-2.3,3.7c-0.3,1.7,0.1,3.1,1,4.2c1,1.1,2.4,1.8,4.3,2.1c1.9,0.3,3.5,0.1,4.7-0.6
	c1.3-0.7,2.1-1.9,2.3-3.7c0.3-1.7-0.1-3.1-1-4.2S173.8,107.3,171.9,107z M174.1,130.5c-0.4,1-0.8,1.8-1.3,2.5
	c-0.4,0.7-1,1.2-1.5,1.6c-0.6,0.4-1.3,0.6-2.1,0.7c-0.8,0-1.6-0.2-2.6-0.6c-1-0.4-1.7-0.9-2.2-1.4c-0.5-0.6-0.9-1.2-1-1.9
	s-0.1-1.5,0.1-2.2c0.2-0.8,0.4-1.6,0.9-2.6l1-2.3l-5-2.1l0.8-2l14.7,6.1L174.1,130.5z M166.1,127.2c-0.3,0.7-0.5,1.2-0.6,1.7
	s-0.1,1-0.1,1.4c0,0.5,0.2,0.9,0.6,1.3s0.9,0.7,1.5,1c0.7,0.3,1.3,0.4,1.8,0.4s0.9-0.2,1.3-0.5c0.4-0.3,0.7-0.7,1-1.1
	c0.3-0.4,0.5-1,0.8-1.6l1-2.4l-6.3-2.6L166.1,127.2z M156,132l13.3,8.9l-5.6,8.5l-1.6-1.1l4.4-6.6l-4.3-2.8l-3.8,5.7l-1.6-1.1
	l3.8-5.7l-4.3-2.9l-4.4,6.6l-1.6-1.1L156,132z M149.4,141.9l11,11.5l-3.2,3.1l-15.9-6l-0.4,0.4l1.3,0.8l9.6,10l-1.6,1.5l-11-11.5
	l3.2-3.1l15.9,6l0.4-0.4l-1.3-0.8l-9.6-10L149.4,141.9z M126.4,176.3l-0.8-1.7l5-2.2l-5.6-12.9l2-0.9l5.7,12.8l5-2.2l0.8,1.7
	L126.4,176.3z M122.1,169.5c0.5,2.3,0.2,4.4-0.8,6.2s-2.7,2.9-5,3.4s-4.2,0.1-5.9-1.1c-1.6-1.2-2.7-3-3.2-5.3s-0.2-4.4,0.8-6.2
	s2.7-2.9,4.9-3.4c2.3-0.5,4.3-0.1,5.9,1.1C120.5,165.3,121.6,167.1,122.1,169.5z M119.9,169.9c-0.4-1.9-1.2-3.3-2.3-4.2
	s-2.6-1.2-4.3-0.9c-1.7,0.4-2.9,1.2-3.6,2.5s-0.8,2.9-0.4,4.8c0.4,1.9,1.1,3.3,2.3,4.2s2.5,1.2,4.3,0.9c1.7-0.4,2.9-1.2,3.6-2.5
	S120.3,171.8,119.9,169.9z M94.3,181l-2.1-0.4l0.1-15.7l-0.6-0.1l-6.1,14.4l-4.5-0.9l0.2-15.6l-0.6-0.1L74.5,177l-2.1-0.4l6.5-14.9
	l4.4,0.9l-0.2,15.6l0.6,0.1l6.1-14.4l4.4,0.9L94.3,181z M72.1,167.3c-1.1,2.1-2.7,3.5-4.6,4.2s-3.9,0.5-6-0.6
	c-2-1.1-3.3-2.7-3.7-4.7c-0.5-2-0.1-4,1-6.1c1.2-2.1,2.7-3.5,4.6-4.2s3.9-0.5,6,0.6s3.3,2.7,3.8,4.7
	C73.6,163.2,73.3,165.2,72.1,167.3z M70.2,166.3c0.9-1.7,1.3-3.2,1-4.7c-0.3-1.4-1.2-2.6-2.7-3.4c-1.5-0.8-3-1-4.3-0.4
	c-1.4,0.6-2.5,1.7-3.4,3.4s-1.2,3.2-1,4.7s1.1,2.6,2.7,3.4c1.5,0.8,3,1,4.3,0.4C68.2,169.1,69.3,168,70.2,166.3z M61.4,151.9
	l-10.7,11.8l-4-3.7c-1.5-1.4-2.5-2.7-2.9-3.9s0-2.4,1.1-3.7c1.4-1.6,3.1-1.8,4.9-0.6l0.4-0.4l-1.5-1.3c-0.7-0.6-0.7-1.3-0.1-1.9
	l3.9-4.3l1.6,1.5l-4.2,4.6l5.7,5.2l4.2-4.6L61.4,151.9z M54.3,156.5l-2.4-2.2c-0.4-0.4-0.8-0.7-1.1-0.9s-0.6-0.4-1-0.6
	c-0.4-0.2-0.7-0.3-1-0.3s-0.6,0.1-1,0.3c-0.3,0.2-0.7,0.5-1.1,0.9s-0.6,0.8-0.8,1.1c-0.1,0.4-0.2,0.7-0.2,1s0.1,0.6,0.3,1
	c0.2,0.3,0.4,0.6,0.7,0.9s0.6,0.6,1,1l2.4,2.2L54.3,156.5z M30.3,140.4l12.1,3.4l1-12.5l1.8,2.6l-0.8,10.2l5.4-3.7l1.3,1.8L38,151.4
	l-1.3-1.8l5.4-3.7l-9.9-2.7L30.3,140.4z M27.7,97.5c-2.4-0.3-4.2-1.3-5.5-2.9s-1.8-3.5-1.5-5.8s1.4-4,3.1-5.1s3.8-1.5,6.1-1.2
	c2.4,0.3,4.2,1.3,5.6,2.9c1.3,1.6,1.8,3.5,1.5,5.8s-1.4,4-3.1,5.2S30,97.9,27.7,97.5z M28,95.3c1.9,0.3,3.5,0,4.7-0.7
	c1.3-0.7,2-2,2.3-3.7s-0.1-3.1-1.1-4.2s-2.5-1.7-4.3-2c-1.9-0.3-3.5,0-4.7,0.7c-1.3,0.7-2,2-2.3,3.7s0.1,3.1,1.1,4.2
	S26.1,95.1,28,95.3z M25.3,71.9c0.4-1,0.8-1.8,1.2-2.5s0.9-1.2,1.5-1.6s1.3-0.7,2-0.7c0.8,0,1.6,0.2,2.6,0.5c1,0.3,1.7,0.8,2.3,1.4
	c0.5,0.5,0.9,1.2,1,1.9c0.1,0.7,0.1,1.5,0,2.2c-0.1,0.8-0.4,1.7-0.8,2.7l-0.9,2.3l5,2l-0.8,2l-14.8-5.9L25.3,71.9z M33.4,75
	c0.3-0.7,0.4-1.3,0.5-1.7c0.1-0.5,0.1-1,0.1-1.4c-0.1-0.5-0.3-0.9-0.6-1.3c-0.4-0.4-0.9-0.7-1.5-0.9c-0.7-0.3-1.3-0.4-1.8-0.4
	s-0.9,0.2-1.3,0.5s-0.7,0.7-0.9,1.1c-0.3,0.4-0.5,1-0.8,1.6l-0.9,2.4l6.3,2.5L33.4,75z M43.4,70.1L30,61.5l5.5-8.6l1.6,1l-4.3,6.7
	l4.3,2.8l3.7-5.8l1.6,1l-3.7,5.9l4.3,2.8l4.3-6.7l1.6,1L43.4,70.1z M49.9,60.1L38.6,48.7l3.1-3.1l16,5.7l0.4-0.4l-1.3-0.8L47,40.3
	l1.6-1.6L59.8,50l-3.1,3.1l-16-5.7l-0.4,0.4l1.3,0.8l9.8,9.8L49.9,60.1z M72.2,25.2l0.8,1.7l-5,2.3L74,42l-2,0.9l-6-12.7l-5,2.3
	l-0.8-1.7L72.2,25.2z M76.6,32c-0.5-2.3-0.3-4.4,0.7-6.2c1-1.8,2.6-3,4.9-3.5s4.2-0.2,5.9,1c1.7,1.2,2.8,3,3.3,5.3s0.3,4.4-0.7,6.2
	s-2.6,3-4.9,3.5s-4.3,0.2-5.9-1S77.2,34.3,76.6,32z M78.8,31.5c0.4,1.9,1.2,3.3,2.4,4.2c1.2,0.9,2.6,1.2,4.3,0.8
	c1.7-0.4,2.9-1.2,3.5-2.6c0.6-1.3,0.7-2.9,0.3-4.8c-0.4-1.9-1.2-3.2-2.3-4.2c-1.1-0.9-2.6-1.2-4.3-0.8c-1.7,0.4-2.9,1.2-3.5,2.6
	S78.4,29.6,78.8,31.5z M104.1,19.9l2.1,0.4l0.2,15.7l0.6,0.1l5.8-14.5l4.5,0.9l0.1,15.6l0.6,0.1l5.9-14.5l2.1,0.4l-6.2,15.1
	l-4.4-0.8l-0.1-15.6l-0.6-0.1l-5.9,14.5l-4.4-0.8L104.1,19.9z M126.6,33.2c1.1-2.1,2.6-3.5,4.5-4.3c1.9-0.7,3.9-0.6,6,0.5
	s3.3,2.6,3.8,4.6s0.2,4-0.9,6.2c-1.1,2.1-2.6,3.6-4.5,4.3s-3.9,0.6-6-0.5c-2.1-1.1-3.4-2.6-3.8-4.6
	C125.2,37.3,125.5,35.3,126.6,33.2z M128.6,34.2c-0.9,1.7-1.2,3.3-0.9,4.7s1.2,2.6,2.8,3.4c1.6,0.8,3,0.9,4.3,0.3s2.5-1.7,3.3-3.4
	c0.9-1.7,1.2-3.2,0.9-4.7s-1.2-2.6-2.7-3.4c-1.6-0.8-3-0.9-4.3-0.3S129.5,32.5,128.6,34.2z M137.6,48.4l10.5-12l4.1,3.6
	c1.6,1.4,2.5,2.7,2.9,3.9s0,2.4-1.1,3.7c-1.4,1.6-3,1.8-4.9,0.7l-0.4,0.4l1.5,1.3c0.7,0.6,0.8,1.3,0.2,1.9l-3.8,4.4l-1.7-1.4
	l4.1-4.7l-5.8-5.1l-4.1,4.7L137.6,48.4z M144.7,43.7l2.5,2.1c0.5,0.4,0.8,0.7,1.1,0.9s0.6,0.4,1,0.6c0.4,0.2,0.7,0.3,1,0.2
	s0.6-0.1,1-0.3c0.3-0.2,0.7-0.5,1.1-0.9c0.4-0.4,0.6-0.8,0.7-1.2c0.1-0.4,0.2-0.7,0.2-1s-0.1-0.6-0.4-0.9s-0.5-0.6-0.7-0.9
	s-0.6-0.6-1.1-1l-2.5-2.1L144.7,43.7z M168.9,59.3l-12.2-3.2L156,68.7l-1.9-2.6l0.6-10.3l-5.3,3.8l-1.3-1.8l12.9-9.4l1.3,1.8L157,54
	l10,2.6L168.9,59.3z"/>
</svg>
